<svg xmlns="http://www.w3.org/2000/svg" viewBox="0 0 64 64">
  <path fill="#fff" d="M8,60H56a3.99891,3.99891,0,0,0,4-4V8a3.99887,3.99887,0,0,0-4-4H8A3.99887,3.99887,0,0,0,4,8V56A3.99891,3.99891,0,0,0,8,60ZM36.74,12.33a1.003,1.003,0,0,1,1-1H51.6a1.00292,1.00292,0,0,1,1,1V26.19a1.00292,1.00292,0,0,1-1,1H37.74a1.003,1.003,0,0,1-1-1ZM34.54,51.82,43.1,37a1.03708,1.03708,0,0,1,1.73,0l8.55,14.82a.99343.99343,0,0,1,0,1,.9756.9756,0,0,1-.86.5H35.41a1.00353,1.00353,0,0,1-.87-.5A.99347.99347,0,0,1,34.54,51.82ZM19.33,10.22a7.93,7.93,0,1,1-7.93,7.93A7.94234,7.94234,0,0,1,19.33,10.22ZM10.77,39.63a1.0041,1.0041,0,0,1,1.42-1.42l6.22,6.22,6.22-6.22a1.0041,1.0041,0,1,1,1.42,1.42l-6.22,6.22,6.22,6.22a1.00792,1.00792,0,0,1,0,1.42,1.01418,1.01418,0,0,1-1.42,0l-6.22-6.22-6.22,6.22a1.02437,1.02437,0,0,1-.71.29,1.04224,1.04224,0,0,1-.71-.29,1.0079,1.0079,0,0,1,0-1.42l6.22-6.22Z"/>
  <circle fill="#fff" cx="19.33" cy="18.15" r="5.93"/>
  <rect fill="#fff" width="11.86" height="11.86" x="38.74" y="13.33"/>
  <polygon fill="#fff" points="43.96 39.5 37.14 51.32 50.79 51.32 43.96 39.5"/>
</svg>